<svg xmlns="http://www.w3.org/2000/svg" width="115.206" height="37" viewBox="0 0 115.206 37">
  <g id="logo" transform="translate(-186.704 -118.632)">
    <path id="Path_801" data-name="Path 801" d="M9.792-13.4a2.716,2.716,0,0,0-1.224.306,3.669,3.669,0,0,0-1.088.833A4.322,4.322,0,0,0,6.7-10.982a4.362,4.362,0,0,0-.306,1.666V0H2.516V-8.568a18.03,18.03,0,0,0-.272-3.417,15.843,15.843,0,0,0-.578-2.227,6.959,6.959,0,0,0-.816-1.6l3.06-1.224a8.961,8.961,0,0,1,.646.918A10.452,10.452,0,0,1,5.1-14.994a7.72,7.72,0,0,1,.442,1.53A5.382,5.382,0,0,1,7.514-16.3a5.127,5.127,0,0,1,2.924-.867,5.5,5.5,0,0,1,1.462.187q.68.187.646.187l-1.088,3.774a2.166,2.166,0,0,0-.391-.187A3.32,3.32,0,0,0,9.792-13.4Zm18.972,5.2a19.2,19.2,0,0,0,.255,3.417A14.648,14.648,0,0,0,29.58-2.55a6.124,6.124,0,0,0,.816,1.6L27.37.272a5.641,5.641,0,0,1-.816-1.054,8.483,8.483,0,0,1-.578-1.309,6.753,6.753,0,0,1-.34-1.819A5.9,5.9,0,0,1,23.783-.833,5.31,5.31,0,0,1,20.332.2a6.054,6.054,0,0,1-2.771-.6,5.312,5.312,0,0,1-1.955-1.7A7.651,7.651,0,0,1,14.45-4.76a14.924,14.924,0,0,1-.374-3.468,10.494,10.494,0,0,1,.6-3.587,8.5,8.5,0,0,1,1.666-2.839,7.7,7.7,0,0,1,2.567-1.87,7.877,7.877,0,0,1,3.3-.68,15.5,15.5,0,0,1,2.125.153q1.1.153,2.057.323T28-16.405q.663.153.765.187ZM20.978-2.516a2.431,2.431,0,0,0,1.564-.578,5.2,5.2,0,0,0,1.241-1.513A8.258,8.258,0,0,0,24.6-6.749a10.549,10.549,0,0,0,.289-2.465v-4.9q-.34-.1-1.02-.238a6.3,6.3,0,0,0-1.224-.136,4.512,4.512,0,0,0-2.125.442,3.58,3.58,0,0,0-1.343,1.224,5.111,5.111,0,0,0-.714,1.87,12.936,12.936,0,0,0-.2,2.38q0,1.19.068,2.278a7.469,7.469,0,0,0,.357,1.938,3.126,3.126,0,0,0,.833,1.343A2.1,2.1,0,0,0,20.978-2.516ZM44.54,0V-10.982a4.5,4.5,0,0,0-.51-2.3,1.847,1.847,0,0,0-1.734-.867,3.168,3.168,0,0,0-1.513.391,4.113,4.113,0,0,0-1.309,1.139,6.107,6.107,0,0,0-.935,1.819,7.553,7.553,0,0,0-.357,2.4V0H34.306V-8.568a18.03,18.03,0,0,0-.272-3.417,15.843,15.843,0,0,0-.578-2.227,6.959,6.959,0,0,0-.816-1.6l3.06-1.224a6.439,6.439,0,0,1,.68.918,8.948,8.948,0,0,1,.544,1.173,9.068,9.068,0,0,1,.442,1.581,5.823,5.823,0,0,1,2.55-2.941,7.26,7.26,0,0,1,3.5-.9,4.409,4.409,0,0,1,3.791,1.581,7.007,7.007,0,0,1,1.173,4.267V0ZM66.3.272a1.694,1.694,0,0,1-.306-.323,5.729,5.729,0,0,1-.527-.8,8.164,8.164,0,0,1-.561-1.275,6.662,6.662,0,0,1-.34-1.785A5.9,5.9,0,0,1,62.713-.833,5.31,5.31,0,0,1,59.262.2a6.054,6.054,0,0,1-2.771-.6,5.312,5.312,0,0,1-1.955-1.7A7.651,7.651,0,0,1,53.38-4.76a14.924,14.924,0,0,1-.374-3.468,10.494,10.494,0,0,1,.6-3.587,8.5,8.5,0,0,1,1.666-2.839,7.7,7.7,0,0,1,2.567-1.87,7.877,7.877,0,0,1,3.3-.68q.612,0,1.309.068t1.377.17V-24.65l3.876.68V-8.194a19.919,19.919,0,0,0,.238,3.383,13.136,13.136,0,0,0,.544,2.176,5.873,5.873,0,0,0,.561,1.207,2.939,2.939,0,0,1,.289.476ZM59.908-2.55a2.431,2.431,0,0,0,1.564-.578,5.2,5.2,0,0,0,1.241-1.513,8.292,8.292,0,0,0,.816-2.125,10.336,10.336,0,0,0,.289-2.448v-4.9q-.34-.1-1.02-.238a6.3,6.3,0,0,0-1.224-.136,4.512,4.512,0,0,0-2.125.442,3.58,3.58,0,0,0-1.343,1.224,5.111,5.111,0,0,0-.714,1.87,12.937,12.937,0,0,0-.2,2.38q0,1.19.068,2.278a7.246,7.246,0,0,0,.357,1.921,3.133,3.133,0,0,0,.833,1.326A2.1,2.1,0,0,0,59.908-2.55Zm27.37-5.644a19.2,19.2,0,0,0,.255,3.417,14.648,14.648,0,0,0,.561,2.227,6.125,6.125,0,0,0,.816,1.6L85.884.272a5.641,5.641,0,0,1-.816-1.054,8.483,8.483,0,0,1-.578-1.309,6.753,6.753,0,0,1-.34-1.819A5.9,5.9,0,0,1,82.3-.833,5.31,5.31,0,0,1,78.846.2a6.054,6.054,0,0,1-2.771-.6,5.312,5.312,0,0,1-1.955-1.7A7.652,7.652,0,0,1,72.964-4.76a14.923,14.923,0,0,1-.374-3.468,10.494,10.494,0,0,1,.6-3.587,8.5,8.5,0,0,1,1.666-2.839,7.7,7.7,0,0,1,2.567-1.87,7.877,7.877,0,0,1,3.3-.68,15.5,15.5,0,0,1,2.125.153q1.1.153,2.057.323t1.615.323q.663.153.765.187ZM79.492-2.516a2.431,2.431,0,0,0,1.564-.578A5.2,5.2,0,0,0,82.3-4.607a8.258,8.258,0,0,0,.816-2.142A10.549,10.549,0,0,0,83.4-9.214v-4.9q-.34-.1-1.02-.238a6.3,6.3,0,0,0-1.224-.136,4.512,4.512,0,0,0-2.125.442,3.58,3.58,0,0,0-1.343,1.224,5.111,5.111,0,0,0-.714,1.87,12.937,12.937,0,0,0-.2,2.38q0,1.19.068,2.278A7.469,7.469,0,0,0,77.2-4.352a3.126,3.126,0,0,0,.833,1.343A2.1,2.1,0,0,0,79.492-2.516Z" transform="translate(213 155)" fill="#ff7500"/>
    <g id="Group_997" data-name="Group 997" transform="translate(-4690.297 -996.579)">
      <path id="Path_798" data-name="Path 798" d="M4881.83,1454.034a15.859,15.859,0,0,1,14.261,6.334,15.052,15.052,0,0,1,2.85,10.5,12.554,12.554,0,0,1-1.671,4.713H4877V1453.11a11.486,11.486,0,0,1,.609-1.022,8.893,8.893,0,0,1,4.22-3.482Zm12.288,16.837a10.847,10.847,0,0,0-3.158-8.969,11.434,11.434,0,0,0-9.13-3.243v12.212h12.288Z" transform="translate(0 -323.373)" fill="#ff7500" fill-rule="evenodd"/>
      <path id="Path_799" data-name="Path 799" d="M4881.828,1120.959a8.767,8.767,0,0,0-4.218,2.779,9.05,9.05,0,0,0-.609.816v-7.471a14.069,14.069,0,0,1,17.1,2.386c4.715,4.8,6.231,12.8,1.981,18.033-.562.693-2.121-.1-2.735-.724-.683-.691-.385-2.622-1.17-3.168a9.064,9.064,0,0,0-3.416-11.781,8.658,8.658,0,0,0-6.935-.869" transform="translate(0 0)" fill="#ff7500" fill-rule="evenodd"/>
      <path id="Path_800" data-name="Path 800" d="M5396.386,1664.617a6.583,6.583,0,0,1-1.217,1.819,15.82,15.82,0,0,0-3.979-3.892,8.94,8.94,0,0,0,.729-2.007,17.163,17.163,0,0,1,4.467,4.08" transform="translate(-499.13 -529.525)" fill="#ff7500" fill-rule="evenodd"/>
    </g>
  </g>
</svg>
